<svg xmlns="http://www.w3.org/2000/svg" width="298" height="192" viewBox="0 0 298 192">
  <g fill="none" fill-rule="evenodd" opacity=".64">
    <g opacity=".1" transform="translate(199.8)">
      <g opacity=".25" transform="rotate(-45 124.807 -35.187)">
        <rect width="25.247" height="25.153"/>
        <path fill="#FFF" fill-rule="nonzero" d="M5.87009894,6.48328536 C6.64525374,6.48328536 7.27364086,5.85824359 7.27364086,5.08721548 C7.27364086,4.31618738 6.64525374,3.6911456 5.87009894,3.6911456 C5.09494414,3.6911456 4.46655702,4.31618738 4.46655702,5.08721548 C4.46655702,5.85824359 5.09494414,6.48328536 5.87009894,6.48328536 Z M4.46655702,7.50581666 C3.62751774,7.02304254 3.0630151,6.12070138 3.0630151,5.08721548 C3.0630151,3.54515927 4.31978934,2.29507572 5.87009894,2.29507572 C7.42040854,2.29507572 8.67718278,3.54515927 8.67718278,5.08721548 C8.67718278,6.12070138 8.11268015,7.02304254 7.27364086,7.50581666 L7.27364086,13.8371734 C8.11268015,14.3199475 8.67718278,15.2222886 8.67718278,16.2557745 C8.67718278,17.7978307 7.42040854,19.0479143 5.87009894,19.0479143 C4.31978934,19.0479143 3.0630151,17.7978307 3.0630151,16.2557745 C3.0630151,15.2222886 3.62751774,14.3199475 4.46655702,13.8371734 L4.46655702,7.50581666 Z M14.2913505,3.6911456 L18.0788579,3.6911456 C19.2413269,3.6911456 20.1862265,4.62715409 20.1862265,5.784205 L20.1862265,13.8371734 C21.0252658,14.3199475 21.5897685,15.2222886 21.5897685,16.2557745 C21.5897685,17.7978307 20.3329942,19.0479143 18.7826846,19.0479143 C17.232375,19.0479143 15.9756008,17.7978307 15.9756008,16.2557745 C15.9756008,15.2222886 16.5401034,14.3199475 17.3791427,13.8371734 L17.3791427,6.69328536 C17.3791427,6.57730556 17.2851225,6.48328536 17.1691427,6.48328536 L14.2913505,6.48328536 L14.2913505,7.87935524 L10.3614331,5.08721548 L14.2913505,2.29507572 L14.2913505,3.6911456 Z M5.87009894,17.6518444 C6.64525374,17.6518444 7.27364086,17.0268026 7.27364086,16.2557745 C7.27364086,15.4847464 6.64525374,14.8597046 5.87009894,14.8597046 C5.09494414,14.8597046 4.46655702,15.4847464 4.46655702,16.2557745 C4.46655702,17.0268026 5.09494414,17.6518444 5.87009894,17.6518444 Z M18.7826846,17.6518444 C19.5578394,17.6518444 20.1862265,17.0268026 20.1862265,16.2557745 C20.1862265,15.4847464 19.5578394,14.8597046 18.7826846,14.8597046 C18.0075298,14.8597046 17.3791427,15.4847464 17.3791427,16.2557745 C17.3791427,17.0268026 18.0075298,17.6518444 18.7826846,17.6518444 Z" transform="matrix(-1 0 0 1 24.653 0)"/>
      </g>
      <g opacity=".25">
        <rect width="25.247" height="25.153"/>
        <path fill="#FFF" d="M14.7327273,5.03999991 C12.6376156,5.03999991 10.9387013,6.68126275 10.9387013,8.705715 C10.9387013,10.3010342 11.9957675,11.654514 13.468052,12.1583299 L13.468052,19.7028603 C13.468052,21.0524299 12.3355099,22.1466703 10.9387013,22.1466703 C9.54169031,22.1466703 8.40935059,21.0524299 8.40935059,19.7028603 L10.9387013,19.7028603 L5.8799999,14.8154357 L5.8799999,19.7028603 C5.8799999,22.4018041 8.14488168,24.5904804 10.9387013,24.5904804 C13.7321162,24.5904804 15.9974027,22.4023906 15.9974027,19.7030558 L15.9974027,12.1585254 C17.4700918,11.654514 18.5267534,10.3012297 18.5267534,8.705715 C18.5267534,6.68126275 16.8280414,5.03999991 14.7327273,5.03999991 Z M13.468052,8.705715 C13.468052,8.03102792 14.0346265,7.48380997 14.7327273,7.48380997 C15.4308281,7.48380997 15.9974027,8.03102792 15.9974027,8.705715 C15.9974027,9.38040208 15.4308281,9.92762003 14.7327273,9.92762003 C14.0346265,9.92762003 13.468052,9.38040208 13.468052,8.705715 Z" transform="rotate(-40 12.203 14.815)"/>
      </g>
      <g opacity=".5" transform="translate(33.662 62.882)">
        <rect width="25.247" height="25.153"/>
        <g transform="rotate(-10 49.273 -10.015)">
          <rect width="19.353" height="13.418" x="-.84" y="-.84" stroke="#FFF" stroke-width="1.68" rx=".84"/>
          <rect width="18.514" height="1.677" y="2.934" fill="#FFF"/>
          <rect width="2.525" height="1.677" x="13.886" y="8.803" fill="#FFF"/>
        </g>
      </g>
      <g opacity=".5" transform="translate(4.208 33.537)">
        <rect width="25.247" height="25.153"/>
        <path fill="#FFF" stroke="#FFF" stroke-width="1.68" d="M8.08732157,16.8600262 L3.78701299,17.9617064 L5.31505627,14.7731431 C4.34926812,13.6529349 3.78701299,12.310446 3.78701299,10.8673161 C3.78701299,6.9491925 7.93157702,3.77292576 13.0441558,3.77292576 C18.1567347,3.77292576 22.3012987,6.9491925 22.3012987,10.8673161 C22.3012987,14.7854397 18.1567347,17.9617064 13.0441558,17.9617064 C11.2207,17.9617064 9.5203822,17.5576635 8.08732157,16.8600262 Z" transform="rotate(-5 13.044 10.867)"/>
      </g>
      <rect width="25.247" height="25.153" transform="translate(33.662 33.537)"/>
      <g opacity=".5" transform="translate(33.662 4.192)">
        <rect width="25.247" height="25.153"/>
        <g stroke="#FFF" stroke-width="1.47" transform="rotate(5 -21.403 20.747)">
          <path d="M3.90937144,11.9865943 L0,12.9956332 L1.38913026,10.0751991 C0.511141033,9.0491902 0,7.81959237 0,6.49781659 C0,2.90917158 3.76778548,0 8.41558442,0 C13.0633833,0 16.8311688,2.90917158 16.8311688,6.49781659 C16.8311688,10.0864616 13.0633833,12.9956332 8.41558442,12.9956332 C6.75789726,12.9956332 5.21215383,12.6255666 3.90937144,11.9865943 Z"/>
          <path d="M10.6271744,18.267595 L6.73246753,19.2838428 L8.11190919,16.352061 C7.23984941,15.3283389 6.73246753,14.1029326 6.73246753,12.7860262 C6.73246753,9.19738119 10.500253,6.28820961 15.1480519,6.28820961 C19.7958509,6.28820961 23.5636364,9.19738119 23.5636364,12.7860262 C23.5636364,16.3746712 19.7958509,19.2838428 15.1480519,19.2838428 C13.4841406,19.2838428 11.9330152,18.910992 10.6271744,18.267595 Z" transform="matrix(-1 0 0 1 30.296 0)"/>
        </g>
      </g>
      <g opacity=".5" transform="translate(63.117 33.537)">
        <rect width="25.247" height="25.153"/>
        <path stroke="#FFF" stroke-width="1.68" d="M17.2389593,13.4605775 L17.9804004,17.261679 C18.2158084,18.4685308 17.1779584,19.2199916 16.0939983,18.633288 L12.6206421,16.7533013 L9.14728578,18.633288 C8.05593805,19.2239902 7.02365088,18.4778862 7.26088367,17.261679 L8.00232477,13.4605775 L5.13137326,10.8455372 C4.21714288,10.0127996 4.61259374,8.78913281 5.84075735,8.62777962 L9.77230384,8.11126248 L11.4540807,4.59911304 C11.9803803,3.50001195 13.2565022,3.49081962 13.7872034,4.59911304 L15.4689803,8.11126248 L19.4005268,8.62777962 C20.6370435,8.79023022 21.0312124,10.0063587 20.1099109,10.8455372 L17.2389593,13.4605775 Z" transform="rotate(-10 12.623 11.307)"/>
      </g>
      <g opacity=".25" transform="translate(0 63.54)">
        <rect width="25.247" height="25.153" y="3.534"/>
        <path stroke="#FFF" stroke-width="1.68" d="M16.4470922,9.086338 C16.5985014,9.07295698 16.748203,9.06066855 16.8966084,9.04946208 L16.8966085,8.34812966 C16.8947355,5.91623563 15.0455801,3.96291102 12.7879034,3.96000038 L12.604033,3.9600003 C11.5222234,3.95953539 10.4814795,4.414332 9.70932756,5.22931795 C8.9286282,6.05332548 8.48762269,7.17720274 8.48762278,8.35174126 L8.48762278,8.80743504 C8.48762081,8.89432654 8.52129391,8.97404101 8.57493585,9.02490004 C8.61845505,9.06616149 8.66932736,9.08349216 8.7249486,9.07718325 C8.84471281,9.06452918 8.93735791,8.95757169 8.93713883,8.80741596 L8.93713883,8.35174133 C8.93713883,6.2513445 10.5666937,4.53069238 12.6003608,4.53069238 L12.7838702,4.53069238 C14.8175373,4.53069238 16.4470922,6.2513445 16.4470922,8.35174133 L16.4470922,9.08633872 Z M19.3667524,12.5009001 L19.366753,12.4998435 C19.3669665,12.3301148 19.2630136,12.1972681 19.1454071,12.1735722 L19.0419769,12.1534993 C14.8010852,11.306335 10.4476842,11.306335 6.20217504,12.1544083 L6.10759743,12.1727395 C5.98403123,12.1973636 5.87984184,12.3302152 5.88000044,12.5009001 L5.88000008,20.5079283 C5.87984184,20.6778308 5.98403123,20.8106825 6.10750943,20.835289 L6.78144791,20.9695157 C8.70781831,21.3541544 10.6639277,21.5475964 12.6244409,21.5473361 C14.5841312,21.5474673 16.5395783,21.3540258 18.4657033,20.9694362 L19.1391554,20.8353065 C19.2627216,20.8106825 19.366911,20.6778308 19.3667524,20.5071459 L19.3667524,12.5009001 Z" transform="rotate(45 12.623 12.754)"/>
      </g>
      <g opacity=".25" transform="translate(67.325)">
        <rect width="25.247" height="25.153" opacity=".35"/>
        <path fill="#FFF" fill-rule="nonzero" stroke="#FFF" stroke-width=".5" d="M14.105065,11.3258515 C14.105065,9.82202108 12.8775693,8.60292568 11.3633766,8.60292568 C9.84918397,8.60292568 8.62168827,9.82202108 8.62168827,11.3258515 M10.4125325,11.3258515 L8.62168827,11.3258515 L8.62168827,12.6873144 C8.62168827,13.4392295 8.00794042,14.0487772 7.25084409,14.0487772 C6.49374775,14.0487772 5.8799999,13.4392295 5.8799999,12.6873144 L5.8799999,11.3258515 C5.8799999,8.3181907 8.33499129,5.8799999 11.3633766,5.8799999 C14.391762,5.8799999 16.8467534,8.3181907 16.8467534,11.3258515 L16.8467534,12.6873144 C16.8467534,13.4392295 16.2330055,14.0487772 15.4759092,14.0487772 C14.7188129,14.0487772 14.105065,13.4392295 14.105065,12.6873144 L14.105065,11.3258515 L12.3142208,11.3258515 C12.5461804,11.3258515 12.7342208,11.5138919 12.7342208,11.7458515 L12.7342208,19.0746288 C12.7342208,19.3065884 12.5461804,19.4946288 12.3142208,19.4946288 L10.4125325,19.4946288 C10.1805729,19.4946288 9.99253246,19.3065884 9.99253246,19.0746288 L9.99253246,11.7458515 C9.99253246,11.5138919 10.1805729,11.3258515 10.4125325,11.3258515 Z M8.62168827,18.1331659 L8.62168827,19.4946288 C8.62168827,20.9984592 9.84918397,22.2175546 11.3633766,22.2175546 C12.8775693,22.2175546 14.105065,20.9984592 14.105065,19.4946288 L14.105065,18.1331659 C14.105065,17.3812507 14.7188129,16.771703 15.4759092,16.771703 C16.2330055,16.771703 16.8467534,17.3812507 16.8467534,18.1331659 L16.8467534,19.4946288 C16.8467534,22.5022896 14.391762,24.9404804 11.3633766,24.9404804 C8.33499129,24.9404804 5.8799999,22.5022896 5.8799999,19.4946288 L5.8799999,18.1331659 C5.8799999,17.3812507 6.49374775,16.771703 7.25084409,16.771703 C8.00794042,16.771703 8.62168827,17.3812507 8.62168827,18.1331659 Z" transform="rotate(45 11.363 15.41)"/>
      </g>
    </g>
    <g opacity=".1" transform="translate(198 96)">
      <g opacity=".25" transform="rotate(-45 124.807 -35.187)">
        <rect width="25.247" height="25.153"/>
        <path fill="#FFF" fill-rule="nonzero" d="M5.87009894,6.48328536 C6.64525374,6.48328536 7.27364086,5.85824359 7.27364086,5.08721548 C7.27364086,4.31618738 6.64525374,3.6911456 5.87009894,3.6911456 C5.09494414,3.6911456 4.46655702,4.31618738 4.46655702,5.08721548 C4.46655702,5.85824359 5.09494414,6.48328536 5.87009894,6.48328536 Z M4.46655702,7.50581666 C3.62751774,7.02304254 3.0630151,6.12070138 3.0630151,5.08721548 C3.0630151,3.54515927 4.31978934,2.29507572 5.87009894,2.29507572 C7.42040854,2.29507572 8.67718278,3.54515927 8.67718278,5.08721548 C8.67718278,6.12070138 8.11268015,7.02304254 7.27364086,7.50581666 L7.27364086,13.8371734 C8.11268015,14.3199475 8.67718278,15.2222886 8.67718278,16.2557745 C8.67718278,17.7978307 7.42040854,19.0479143 5.87009894,19.0479143 C4.31978934,19.0479143 3.0630151,17.7978307 3.0630151,16.2557745 C3.0630151,15.2222886 3.62751774,14.3199475 4.46655702,13.8371734 L4.46655702,7.50581666 Z M14.2913505,3.6911456 L18.0788579,3.6911456 C19.2413269,3.6911456 20.1862265,4.62715409 20.1862265,5.784205 L20.1862265,13.8371734 C21.0252658,14.3199475 21.5897685,15.2222886 21.5897685,16.2557745 C21.5897685,17.7978307 20.3329942,19.0479143 18.7826846,19.0479143 C17.232375,19.0479143 15.9756008,17.7978307 15.9756008,16.2557745 C15.9756008,15.2222886 16.5401034,14.3199475 17.3791427,13.8371734 L17.3791427,6.69328536 C17.3791427,6.57730556 17.2851225,6.48328536 17.1691427,6.48328536 L14.2913505,6.48328536 L14.2913505,7.87935524 L10.3614331,5.08721548 L14.2913505,2.29507572 L14.2913505,3.6911456 Z M5.87009894,17.6518444 C6.64525374,17.6518444 7.27364086,17.0268026 7.27364086,16.2557745 C7.27364086,15.4847464 6.64525374,14.8597046 5.87009894,14.8597046 C5.09494414,14.8597046 4.46655702,15.4847464 4.46655702,16.2557745 C4.46655702,17.0268026 5.09494414,17.6518444 5.87009894,17.6518444 Z M18.7826846,17.6518444 C19.5578394,17.6518444 20.1862265,17.0268026 20.1862265,16.2557745 C20.1862265,15.4847464 19.5578394,14.8597046 18.7826846,14.8597046 C18.0075298,14.8597046 17.3791427,15.4847464 17.3791427,16.2557745 C17.3791427,17.0268026 18.0075298,17.6518444 18.7826846,17.6518444 Z" transform="matrix(-1 0 0 1 24.653 0)"/>
      </g>
      <g opacity=".25">
        <rect width="25.247" height="25.153"/>
        <path fill="#FFF" d="M14.7327273,5.03999991 C12.6376156,5.03999991 10.9387013,6.68126275 10.9387013,8.705715 C10.9387013,10.3010342 11.9957675,11.654514 13.468052,12.1583299 L13.468052,19.7028603 C13.468052,21.0524299 12.3355099,22.1466703 10.9387013,22.1466703 C9.54169031,22.1466703 8.40935059,21.0524299 8.40935059,19.7028603 L10.9387013,19.7028603 L5.8799999,14.8154357 L5.8799999,19.7028603 C5.8799999,22.4018041 8.14488168,24.5904804 10.9387013,24.5904804 C13.7321162,24.5904804 15.9974027,22.4023906 15.9974027,19.7030558 L15.9974027,12.1585254 C17.4700918,11.654514 18.5267534,10.3012297 18.5267534,8.705715 C18.5267534,6.68126275 16.8280414,5.03999991 14.7327273,5.03999991 Z M13.468052,8.705715 C13.468052,8.03102792 14.0346265,7.48380997 14.7327273,7.48380997 C15.4308281,7.48380997 15.9974027,8.03102792 15.9974027,8.705715 C15.9974027,9.38040208 15.4308281,9.92762003 14.7327273,9.92762003 C14.0346265,9.92762003 13.468052,9.38040208 13.468052,8.705715 Z" transform="rotate(-40 12.203 14.815)"/>
      </g>
      <g opacity=".5" transform="translate(33.662 62.882)">
        <rect width="25.247" height="25.153"/>
        <g transform="rotate(-10 49.273 -10.015)">
          <rect width="19.353" height="13.418" x="-.84" y="-.84" stroke="#FFF" stroke-width="1.68" rx=".84"/>
          <rect width="18.514" height="1.677" y="2.934" fill="#FFF"/>
          <rect width="2.525" height="1.677" x="13.886" y="8.803" fill="#FFF"/>
        </g>
      </g>
      <g opacity=".5" transform="translate(4.208 33.537)">
        <rect width="25.247" height="25.153"/>
        <path fill="#FFF" stroke="#FFF" stroke-width="1.68" d="M8.08732157,16.8600262 L3.78701299,17.9617064 L5.31505627,14.7731431 C4.34926812,13.6529349 3.78701299,12.310446 3.78701299,10.8673161 C3.78701299,6.9491925 7.93157702,3.77292576 13.0441558,3.77292576 C18.1567347,3.77292576 22.3012987,6.9491925 22.3012987,10.8673161 C22.3012987,14.7854397 18.1567347,17.9617064 13.0441558,17.9617064 C11.2207,17.9617064 9.5203822,17.5576635 8.08732157,16.8600262 Z" transform="rotate(-5 13.044 10.867)"/>
      </g>
      <rect width="25.247" height="25.153" transform="translate(33.662 33.537)"/>
      <g opacity=".5" transform="translate(33.662 4.192)">
        <rect width="25.247" height="25.153"/>
        <g stroke="#FFF" stroke-width="1.47" transform="rotate(5 -21.403 20.747)">
          <path d="M3.90937144,11.9865943 L0,12.9956332 L1.38913026,10.0751991 C0.511141033,9.0491902 0,7.81959237 0,6.49781659 C0,2.90917158 3.76778548,0 8.41558442,0 C13.0633833,0 16.8311688,2.90917158 16.8311688,6.49781659 C16.8311688,10.0864616 13.0633833,12.9956332 8.41558442,12.9956332 C6.75789726,12.9956332 5.21215383,12.6255666 3.90937144,11.9865943 Z"/>
          <path d="M10.6271744,18.267595 L6.73246753,19.2838428 L8.11190919,16.352061 C7.23984941,15.3283389 6.73246753,14.1029326 6.73246753,12.7860262 C6.73246753,9.19738119 10.500253,6.28820961 15.1480519,6.28820961 C19.7958509,6.28820961 23.5636364,9.19738119 23.5636364,12.7860262 C23.5636364,16.3746712 19.7958509,19.2838428 15.1480519,19.2838428 C13.4841406,19.2838428 11.9330152,18.910992 10.6271744,18.267595 Z" transform="matrix(-1 0 0 1 30.296 0)"/>
        </g>
      </g>
      <g opacity=".5" transform="translate(63.117 33.537)">
        <rect width="25.247" height="25.153"/>
        <path stroke="#FFF" stroke-width="1.68" d="M17.2389593,13.4605775 L17.9804004,17.261679 C18.2158084,18.4685308 17.1779584,19.2199916 16.0939983,18.633288 L12.6206421,16.7533013 L9.14728578,18.633288 C8.05593805,19.2239902 7.02365088,18.4778862 7.26088367,17.261679 L8.00232477,13.4605775 L5.13137326,10.8455372 C4.21714288,10.0127996 4.61259374,8.78913281 5.84075735,8.62777962 L9.77230384,8.11126248 L11.4540807,4.59911304 C11.9803803,3.50001195 13.2565022,3.49081962 13.7872034,4.59911304 L15.4689803,8.11126248 L19.4005268,8.62777962 C20.6370435,8.79023022 21.0312124,10.0063587 20.1099109,10.8455372 L17.2389593,13.4605775 Z" transform="rotate(-10 12.623 11.307)"/>
      </g>
      <g opacity=".25" transform="translate(0 63.54)">
        <rect width="25.247" height="25.153" y="3.534"/>
        <path stroke="#FFF" stroke-width="1.68" d="M16.4470922,9.086338 C16.5985014,9.07295698 16.748203,9.06066855 16.8966084,9.04946208 L16.8966085,8.34812966 C16.8947355,5.91623563 15.0455801,3.96291102 12.7879034,3.96000038 L12.604033,3.9600003 C11.5222234,3.95953539 10.4814795,4.414332 9.70932756,5.22931795 C8.9286282,6.05332548 8.48762269,7.17720274 8.48762278,8.35174126 L8.48762278,8.80743504 C8.48762081,8.89432654 8.52129391,8.97404101 8.57493585,9.02490004 C8.61845505,9.06616149 8.66932736,9.08349216 8.7249486,9.07718325 C8.84471281,9.06452918 8.93735791,8.95757169 8.93713883,8.80741596 L8.93713883,8.35174133 C8.93713883,6.2513445 10.5666937,4.53069238 12.6003608,4.53069238 L12.7838702,4.53069238 C14.8175373,4.53069238 16.4470922,6.2513445 16.4470922,8.35174133 L16.4470922,9.08633872 Z M19.3667524,12.5009001 L19.366753,12.4998435 C19.3669665,12.3301148 19.2630136,12.1972681 19.1454071,12.1735722 L19.0419769,12.1534993 C14.8010852,11.306335 10.4476842,11.306335 6.20217504,12.1544083 L6.10759743,12.1727395 C5.98403123,12.1973636 5.87984184,12.3302152 5.88000044,12.5009001 L5.88000008,20.5079283 C5.87984184,20.6778308 5.98403123,20.8106825 6.10750943,20.835289 L6.78144791,20.9695157 C8.70781831,21.3541544 10.6639277,21.5475964 12.6244409,21.5473361 C14.5841312,21.5474673 16.5395783,21.3540258 18.4657033,20.9694362 L19.1391554,20.8353065 C19.2627216,20.8106825 19.366911,20.6778308 19.3667524,20.5071459 L19.3667524,12.5009001 Z" transform="rotate(45 12.623 12.754)"/>
      </g>
      <g opacity=".25" transform="translate(67.325)">
        <rect width="25.247" height="25.153" opacity=".35"/>
        <path fill="#FFF" fill-rule="nonzero" stroke="#FFF" stroke-width=".5" d="M14.105065,11.3258515 C14.105065,9.82202108 12.8775693,8.60292568 11.3633766,8.60292568 C9.84918397,8.60292568 8.62168827,9.82202108 8.62168827,11.3258515 M10.4125325,11.3258515 L8.62168827,11.3258515 L8.62168827,12.6873144 C8.62168827,13.4392295 8.00794042,14.0487772 7.25084409,14.0487772 C6.49374775,14.0487772 5.8799999,13.4392295 5.8799999,12.6873144 L5.8799999,11.3258515 C5.8799999,8.3181907 8.33499129,5.8799999 11.3633766,5.8799999 C14.391762,5.8799999 16.8467534,8.3181907 16.8467534,11.3258515 L16.8467534,12.6873144 C16.8467534,13.4392295 16.2330055,14.0487772 15.4759092,14.0487772 C14.7188129,14.0487772 14.105065,13.4392295 14.105065,12.6873144 L14.105065,11.3258515 L12.3142208,11.3258515 C12.5461804,11.3258515 12.7342208,11.5138919 12.7342208,11.7458515 L12.7342208,19.0746288 C12.7342208,19.3065884 12.5461804,19.4946288 12.3142208,19.4946288 L10.4125325,19.4946288 C10.1805729,19.4946288 9.99253246,19.3065884 9.99253246,19.0746288 L9.99253246,11.7458515 C9.99253246,11.5138919 10.1805729,11.3258515 10.4125325,11.3258515 Z M8.62168827,18.1331659 L8.62168827,19.4946288 C8.62168827,20.9984592 9.84918397,22.2175546 11.3633766,22.2175546 C12.8775693,22.2175546 14.105065,20.9984592 14.105065,19.4946288 L14.105065,18.1331659 C14.105065,17.3812507 14.7188129,16.771703 15.4759092,16.771703 C16.2330055,16.771703 16.8467534,17.3812507 16.8467534,18.1331659 L16.8467534,19.4946288 C16.8467534,22.5022896 14.391762,24.9404804 11.3633766,24.9404804 C8.33499129,24.9404804 5.8799999,22.5022896 5.8799999,19.4946288 L5.8799999,18.1331659 C5.8799999,17.3812507 6.49374775,16.771703 7.25084409,16.771703 C8.00794042,16.771703 8.62168827,17.3812507 8.62168827,18.1331659 Z" transform="rotate(45 11.363 15.41)"/>
      </g>
    </g>
    <g opacity=".1" transform="translate(99)">
      <g opacity=".25" transform="rotate(-45 124.807 -35.187)">
        <rect width="25.247" height="25.153"/>
        <path fill="#FFF" fill-rule="nonzero" d="M5.87009894,6.48328536 C6.64525374,6.48328536 7.27364086,5.85824359 7.27364086,5.08721548 C7.27364086,4.31618738 6.64525374,3.6911456 5.87009894,3.6911456 C5.09494414,3.6911456 4.46655702,4.31618738 4.46655702,5.08721548 C4.46655702,5.85824359 5.09494414,6.48328536 5.87009894,6.48328536 Z M4.46655702,7.50581666 C3.62751774,7.02304254 3.0630151,6.12070138 3.0630151,5.08721548 C3.0630151,3.54515927 4.31978934,2.29507572 5.87009894,2.29507572 C7.42040854,2.29507572 8.67718278,3.54515927 8.67718278,5.08721548 C8.67718278,6.12070138 8.11268015,7.02304254 7.27364086,7.50581666 L7.27364086,13.8371734 C8.11268015,14.3199475 8.67718278,15.2222886 8.67718278,16.2557745 C8.67718278,17.7978307 7.42040854,19.0479143 5.87009894,19.0479143 C4.31978934,19.0479143 3.0630151,17.7978307 3.0630151,16.2557745 C3.0630151,15.2222886 3.62751774,14.3199475 4.46655702,13.8371734 L4.46655702,7.50581666 Z M14.2913505,3.6911456 L18.0788579,3.6911456 C19.2413269,3.6911456 20.1862265,4.62715409 20.1862265,5.784205 L20.1862265,13.8371734 C21.0252658,14.3199475 21.5897685,15.2222886 21.5897685,16.2557745 C21.5897685,17.7978307 20.3329942,19.0479143 18.7826846,19.0479143 C17.232375,19.0479143 15.9756008,17.7978307 15.9756008,16.2557745 C15.9756008,15.2222886 16.5401034,14.3199475 17.3791427,13.8371734 L17.3791427,6.69328536 C17.3791427,6.57730556 17.2851225,6.48328536 17.1691427,6.48328536 L14.2913505,6.48328536 L14.2913505,7.87935524 L10.3614331,5.08721548 L14.2913505,2.29507572 L14.2913505,3.6911456 Z M5.87009894,17.6518444 C6.64525374,17.6518444 7.27364086,17.0268026 7.27364086,16.2557745 C7.27364086,15.4847464 6.64525374,14.8597046 5.87009894,14.8597046 C5.09494414,14.8597046 4.46655702,15.4847464 4.46655702,16.2557745 C4.46655702,17.0268026 5.09494414,17.6518444 5.87009894,17.6518444 Z M18.7826846,17.6518444 C19.5578394,17.6518444 20.1862265,17.0268026 20.1862265,16.2557745 C20.1862265,15.4847464 19.5578394,14.8597046 18.7826846,14.8597046 C18.0075298,14.8597046 17.3791427,15.4847464 17.3791427,16.2557745 C17.3791427,17.0268026 18.0075298,17.6518444 18.7826846,17.6518444 Z" transform="matrix(-1 0 0 1 24.653 0)"/>
      </g>
      <g opacity=".25">
        <rect width="25.247" height="25.153"/>
        <path fill="#FFF" d="M14.7327273,5.03999991 C12.6376156,5.03999991 10.9387013,6.68126275 10.9387013,8.705715 C10.9387013,10.3010342 11.9957675,11.654514 13.468052,12.1583299 L13.468052,19.7028603 C13.468052,21.0524299 12.3355099,22.1466703 10.9387013,22.1466703 C9.54169031,22.1466703 8.40935059,21.0524299 8.40935059,19.7028603 L10.9387013,19.7028603 L5.8799999,14.8154357 L5.8799999,19.7028603 C5.8799999,22.4018041 8.14488168,24.5904804 10.9387013,24.5904804 C13.7321162,24.5904804 15.9974027,22.4023906 15.9974027,19.7030558 L15.9974027,12.1585254 C17.4700918,11.654514 18.5267534,10.3012297 18.5267534,8.705715 C18.5267534,6.68126275 16.8280414,5.03999991 14.7327273,5.03999991 Z M13.468052,8.705715 C13.468052,8.03102792 14.0346265,7.48380997 14.7327273,7.48380997 C15.4308281,7.48380997 15.9974027,8.03102792 15.9974027,8.705715 C15.9974027,9.38040208 15.4308281,9.92762003 14.7327273,9.92762003 C14.0346265,9.92762003 13.468052,9.38040208 13.468052,8.705715 Z" transform="rotate(-40 12.203 14.815)"/>
      </g>
      <g opacity=".5" transform="translate(33.662 62.882)">
        <rect width="25.247" height="25.153"/>
        <g transform="rotate(-10 49.273 -10.015)">
          <rect width="19.353" height="13.418" x="-.84" y="-.84" stroke="#FFF" stroke-width="1.68" rx=".84"/>
          <rect width="18.514" height="1.677" y="2.934" fill="#FFF"/>
          <rect width="2.525" height="1.677" x="13.886" y="8.803" fill="#FFF"/>
        </g>
      </g>
      <g opacity=".5" transform="translate(4.208 33.537)">
        <rect width="25.247" height="25.153"/>
        <path fill="#FFF" stroke="#FFF" stroke-width="1.68" d="M8.08732157,16.8600262 L3.78701299,17.9617064 L5.31505627,14.7731431 C4.34926812,13.6529349 3.78701299,12.310446 3.78701299,10.8673161 C3.78701299,6.9491925 7.93157702,3.77292576 13.0441558,3.77292576 C18.1567347,3.77292576 22.3012987,6.9491925 22.3012987,10.8673161 C22.3012987,14.7854397 18.1567347,17.9617064 13.0441558,17.9617064 C11.2207,17.9617064 9.5203822,17.5576635 8.08732157,16.8600262 Z" transform="rotate(-5 13.044 10.867)"/>
      </g>
      <rect width="25.247" height="25.153" transform="translate(33.662 33.537)"/>
      <g opacity=".5" transform="translate(33.662 4.192)">
        <rect width="25.247" height="25.153"/>
        <g stroke="#FFF" stroke-width="1.47" transform="rotate(5 -21.403 20.747)">
          <path d="M3.90937144,11.9865943 L0,12.9956332 L1.38913026,10.0751991 C0.511141033,9.0491902 0,7.81959237 0,6.49781659 C0,2.90917158 3.76778548,0 8.41558442,0 C13.0633833,0 16.8311688,2.90917158 16.8311688,6.49781659 C16.8311688,10.0864616 13.0633833,12.9956332 8.41558442,12.9956332 C6.75789726,12.9956332 5.21215383,12.6255666 3.90937144,11.9865943 Z"/>
          <path d="M10.6271744,18.267595 L6.73246753,19.2838428 L8.11190919,16.352061 C7.23984941,15.3283389 6.73246753,14.1029326 6.73246753,12.7860262 C6.73246753,9.19738119 10.500253,6.28820961 15.1480519,6.28820961 C19.7958509,6.28820961 23.5636364,9.19738119 23.5636364,12.7860262 C23.5636364,16.3746712 19.7958509,19.2838428 15.1480519,19.2838428 C13.4841406,19.2838428 11.9330152,18.910992 10.6271744,18.267595 Z" transform="matrix(-1 0 0 1 30.296 0)"/>
        </g>
      </g>
      <g opacity=".5" transform="translate(63.117 33.537)">
        <rect width="25.247" height="25.153"/>
        <path stroke="#FFF" stroke-width="1.68" d="M17.2389593,13.4605775 L17.9804004,17.261679 C18.2158084,18.4685308 17.1779584,19.2199916 16.0939983,18.633288 L12.6206421,16.7533013 L9.14728578,18.633288 C8.05593805,19.2239902 7.02365088,18.4778862 7.26088367,17.261679 L8.00232477,13.4605775 L5.13137326,10.8455372 C4.21714288,10.0127996 4.61259374,8.78913281 5.84075735,8.62777962 L9.77230384,8.11126248 L11.4540807,4.59911304 C11.9803803,3.50001195 13.2565022,3.49081962 13.7872034,4.59911304 L15.4689803,8.11126248 L19.4005268,8.62777962 C20.6370435,8.79023022 21.0312124,10.0063587 20.1099109,10.8455372 L17.2389593,13.4605775 Z" transform="rotate(-10 12.623 11.307)"/>
      </g>
      <g opacity=".25" transform="translate(0 63.54)">
        <rect width="25.247" height="25.153" y="3.534"/>
        <path stroke="#FFF" stroke-width="1.68" d="M16.4470922,9.086338 C16.5985014,9.07295698 16.748203,9.06066855 16.8966084,9.04946208 L16.8966085,8.34812966 C16.8947355,5.91623563 15.0455801,3.96291102 12.7879034,3.96000038 L12.604033,3.9600003 C11.5222234,3.95953539 10.4814795,4.414332 9.70932756,5.22931795 C8.9286282,6.05332548 8.48762269,7.17720274 8.48762278,8.35174126 L8.48762278,8.80743504 C8.48762081,8.89432654 8.52129391,8.97404101 8.57493585,9.02490004 C8.61845505,9.06616149 8.66932736,9.08349216 8.7249486,9.07718325 C8.84471281,9.06452918 8.93735791,8.95757169 8.93713883,8.80741596 L8.93713883,8.35174133 C8.93713883,6.2513445 10.5666937,4.53069238 12.6003608,4.53069238 L12.7838702,4.53069238 C14.8175373,4.53069238 16.4470922,6.2513445 16.4470922,8.35174133 L16.4470922,9.08633872 Z M19.3667524,12.5009001 L19.366753,12.4998435 C19.3669665,12.3301148 19.2630136,12.1972681 19.1454071,12.1735722 L19.0419769,12.1534993 C14.8010852,11.306335 10.4476842,11.306335 6.20217504,12.1544083 L6.10759743,12.1727395 C5.98403123,12.1973636 5.87984184,12.3302152 5.88000044,12.5009001 L5.88000008,20.5079283 C5.87984184,20.6778308 5.98403123,20.8106825 6.10750943,20.835289 L6.78144791,20.9695157 C8.70781831,21.3541544 10.6639277,21.5475964 12.6244409,21.5473361 C14.5841312,21.5474673 16.5395783,21.3540258 18.4657033,20.9694362 L19.1391554,20.8353065 C19.2627216,20.8106825 19.366911,20.6778308 19.3667524,20.5071459 L19.3667524,12.5009001 Z" transform="rotate(45 12.623 12.754)"/>
      </g>
      <g opacity=".25" transform="translate(67.325)">
        <rect width="25.247" height="25.153" opacity=".35"/>
        <path fill="#FFF" fill-rule="nonzero" stroke="#FFF" stroke-width=".5" d="M14.105065,11.3258515 C14.105065,9.82202108 12.8775693,8.60292568 11.3633766,8.60292568 C9.84918397,8.60292568 8.62168827,9.82202108 8.62168827,11.3258515 M10.4125325,11.3258515 L8.62168827,11.3258515 L8.62168827,12.6873144 C8.62168827,13.4392295 8.00794042,14.0487772 7.25084409,14.0487772 C6.49374775,14.0487772 5.8799999,13.4392295 5.8799999,12.6873144 L5.8799999,11.3258515 C5.8799999,8.3181907 8.33499129,5.8799999 11.3633766,5.8799999 C14.391762,5.8799999 16.8467534,8.3181907 16.8467534,11.3258515 L16.8467534,12.6873144 C16.8467534,13.4392295 16.2330055,14.0487772 15.4759092,14.0487772 C14.7188129,14.0487772 14.105065,13.4392295 14.105065,12.6873144 L14.105065,11.3258515 L12.3142208,11.3258515 C12.5461804,11.3258515 12.7342208,11.5138919 12.7342208,11.7458515 L12.7342208,19.0746288 C12.7342208,19.3065884 12.5461804,19.4946288 12.3142208,19.4946288 L10.4125325,19.4946288 C10.1805729,19.4946288 9.99253246,19.3065884 9.99253246,19.0746288 L9.99253246,11.7458515 C9.99253246,11.5138919 10.1805729,11.3258515 10.4125325,11.3258515 Z M8.62168827,18.1331659 L8.62168827,19.4946288 C8.62168827,20.9984592 9.84918397,22.2175546 11.3633766,22.2175546 C12.8775693,22.2175546 14.105065,20.9984592 14.105065,19.4946288 L14.105065,18.1331659 C14.105065,17.3812507 14.7188129,16.771703 15.4759092,16.771703 C16.2330055,16.771703 16.8467534,17.3812507 16.8467534,18.1331659 L16.8467534,19.4946288 C16.8467534,22.5022896 14.391762,24.9404804 11.3633766,24.9404804 C8.33499129,24.9404804 5.8799999,22.5022896 5.8799999,19.4946288 L5.8799999,18.1331659 C5.8799999,17.3812507 6.49374775,16.771703 7.25084409,16.771703 C8.00794042,16.771703 8.62168827,17.3812507 8.62168827,18.1331659 Z" transform="rotate(45 11.363 15.41)"/>
      </g>
    </g>
    <g opacity=".1" transform="translate(97.2 96)">
      <g opacity=".25" transform="rotate(-45 124.807 -35.187)">
        <rect width="25.247" height="25.153"/>
        <path fill="#FFF" fill-rule="nonzero" d="M5.87009894,6.48328536 C6.64525374,6.48328536 7.27364086,5.85824359 7.27364086,5.08721548 C7.27364086,4.31618738 6.64525374,3.6911456 5.87009894,3.6911456 C5.09494414,3.6911456 4.46655702,4.31618738 4.46655702,5.08721548 C4.46655702,5.85824359 5.09494414,6.48328536 5.87009894,6.48328536 Z M4.46655702,7.50581666 C3.62751774,7.02304254 3.0630151,6.12070138 3.0630151,5.08721548 C3.0630151,3.54515927 4.31978934,2.29507572 5.87009894,2.29507572 C7.42040854,2.29507572 8.67718278,3.54515927 8.67718278,5.08721548 C8.67718278,6.12070138 8.11268015,7.02304254 7.27364086,7.50581666 L7.27364086,13.8371734 C8.11268015,14.3199475 8.67718278,15.2222886 8.67718278,16.2557745 C8.67718278,17.7978307 7.42040854,19.0479143 5.87009894,19.0479143 C4.31978934,19.0479143 3.0630151,17.7978307 3.0630151,16.2557745 C3.0630151,15.2222886 3.62751774,14.3199475 4.46655702,13.8371734 L4.46655702,7.50581666 Z M14.2913505,3.6911456 L18.0788579,3.6911456 C19.2413269,3.6911456 20.1862265,4.62715409 20.1862265,5.784205 L20.1862265,13.8371734 C21.0252658,14.3199475 21.5897685,15.2222886 21.5897685,16.2557745 C21.5897685,17.7978307 20.3329942,19.0479143 18.7826846,19.0479143 C17.232375,19.0479143 15.9756008,17.7978307 15.9756008,16.2557745 C15.9756008,15.2222886 16.5401034,14.3199475 17.3791427,13.8371734 L17.3791427,6.69328536 C17.3791427,6.57730556 17.2851225,6.48328536 17.1691427,6.48328536 L14.2913505,6.48328536 L14.2913505,7.87935524 L10.3614331,5.08721548 L14.2913505,2.29507572 L14.2913505,3.6911456 Z M5.87009894,17.6518444 C6.64525374,17.6518444 7.27364086,17.0268026 7.27364086,16.2557745 C7.27364086,15.4847464 6.64525374,14.8597046 5.87009894,14.8597046 C5.09494414,14.8597046 4.46655702,15.4847464 4.46655702,16.2557745 C4.46655702,17.0268026 5.09494414,17.6518444 5.87009894,17.6518444 Z M18.7826846,17.6518444 C19.5578394,17.6518444 20.1862265,17.0268026 20.1862265,16.2557745 C20.1862265,15.4847464 19.5578394,14.8597046 18.7826846,14.8597046 C18.0075298,14.8597046 17.3791427,15.4847464 17.3791427,16.2557745 C17.3791427,17.0268026 18.0075298,17.6518444 18.7826846,17.6518444 Z" transform="matrix(-1 0 0 1 24.653 0)"/>
      </g>
      <g opacity=".25">
        <rect width="25.247" height="25.153"/>
        <path fill="#FFF" d="M14.7327273,5.03999991 C12.6376156,5.03999991 10.9387013,6.68126275 10.9387013,8.705715 C10.9387013,10.3010342 11.9957675,11.654514 13.468052,12.1583299 L13.468052,19.7028603 C13.468052,21.0524299 12.3355099,22.1466703 10.9387013,22.1466703 C9.54169031,22.1466703 8.40935059,21.0524299 8.40935059,19.7028603 L10.9387013,19.7028603 L5.8799999,14.8154357 L5.8799999,19.7028603 C5.8799999,22.4018041 8.14488168,24.5904804 10.9387013,24.5904804 C13.7321162,24.5904804 15.9974027,22.4023906 15.9974027,19.7030558 L15.9974027,12.1585254 C17.4700918,11.654514 18.5267534,10.3012297 18.5267534,8.705715 C18.5267534,6.68126275 16.8280414,5.03999991 14.7327273,5.03999991 Z M13.468052,8.705715 C13.468052,8.03102792 14.0346265,7.48380997 14.7327273,7.48380997 C15.4308281,7.48380997 15.9974027,8.03102792 15.9974027,8.705715 C15.9974027,9.38040208 15.4308281,9.92762003 14.7327273,9.92762003 C14.0346265,9.92762003 13.468052,9.38040208 13.468052,8.705715 Z" transform="rotate(-40 12.203 14.815)"/>
      </g>
      <g opacity=".5" transform="translate(33.662 62.882)">
        <rect width="25.247" height="25.153"/>
        <g transform="rotate(-10 49.273 -10.015)">
          <rect width="19.353" height="13.418" x="-.84" y="-.84" stroke="#FFF" stroke-width="1.68" rx=".84"/>
          <rect width="18.514" height="1.677" y="2.934" fill="#FFF"/>
          <rect width="2.525" height="1.677" x="13.886" y="8.803" fill="#FFF"/>
        </g>
      </g>
      <g opacity=".5" transform="translate(4.208 33.537)">
        <rect width="25.247" height="25.153"/>
        <path fill="#FFF" stroke="#FFF" stroke-width="1.68" d="M8.08732157,16.8600262 L3.78701299,17.9617064 L5.31505627,14.7731431 C4.34926812,13.6529349 3.78701299,12.310446 3.78701299,10.8673161 C3.78701299,6.9491925 7.93157702,3.77292576 13.0441558,3.77292576 C18.1567347,3.77292576 22.3012987,6.9491925 22.3012987,10.8673161 C22.3012987,14.7854397 18.1567347,17.9617064 13.0441558,17.9617064 C11.2207,17.9617064 9.5203822,17.5576635 8.08732157,16.8600262 Z" transform="rotate(-5 13.044 10.867)"/>
      </g>
      <rect width="25.247" height="25.153" transform="translate(33.662 33.537)"/>
      <g opacity=".5" transform="translate(33.662 4.192)">
        <rect width="25.247" height="25.153"/>
        <g fill="#FFF" stroke="#FFF" stroke-width="1.47" transform="rotate(5 -21.403 20.747)">
          <path d="M3.90937144,11.9865943 L0,12.9956332 L1.38913026,10.0751991 C0.511141033,9.0491902 0,7.81959237 0,6.49781659 C0,2.90917158 3.76778548,0 8.41558442,0 C13.0633833,0 16.8311688,2.90917158 16.8311688,6.49781659 C16.8311688,10.0864616 13.0633833,12.9956332 8.41558442,12.9956332 C6.75789726,12.9956332 5.21215383,12.6255666 3.90937144,11.9865943 Z"/>
          <path d="M10.6271744,18.267595 L6.73246753,19.2838428 L8.11190919,16.352061 C7.23984941,15.3283389 6.73246753,14.1029326 6.73246753,12.7860262 C6.73246753,9.19738119 10.500253,6.28820961 15.1480519,6.28820961 C19.7958509,6.28820961 23.5636364,9.19738119 23.5636364,12.7860262 C23.5636364,16.3746712 19.7958509,19.2838428 15.1480519,19.2838428 C13.4841406,19.2838428 11.9330152,18.910992 10.6271744,18.267595 Z" transform="matrix(-1 0 0 1 30.296 0)"/>
        </g>
      </g>
      <g opacity=".5" transform="translate(63.117 33.537)">
        <rect width="25.247" height="25.153"/>
        <path stroke="#FFF" stroke-width="1.68" d="M17.2389593,13.4605775 L17.9804004,17.261679 C18.2158084,18.4685308 17.1779584,19.2199916 16.0939983,18.633288 L12.6206421,16.7533013 L9.14728578,18.633288 C8.05593805,19.2239902 7.02365088,18.4778862 7.26088367,17.261679 L8.00232477,13.4605775 L5.13137326,10.8455372 C4.21714288,10.0127996 4.61259374,8.78913281 5.84075735,8.62777962 L9.77230384,8.11126248 L11.4540807,4.59911304 C11.9803803,3.50001195 13.2565022,3.49081962 13.7872034,4.59911304 L15.4689803,8.11126248 L19.4005268,8.62777962 C20.6370435,8.79023022 21.0312124,10.0063587 20.1099109,10.8455372 L17.2389593,13.4605775 Z" transform="rotate(-10 12.623 11.307)"/>
      </g>
      <g opacity=".25" transform="translate(0 63.54)">
        <rect width="25.247" height="25.153" y="3.534"/>
        <path stroke="#FFF" stroke-width="1.68" d="M16.4470922,9.086338 C16.5985014,9.07295698 16.748203,9.06066855 16.8966084,9.04946208 L16.8966085,8.34812966 C16.8947355,5.91623563 15.0455801,3.96291102 12.7879034,3.96000038 L12.604033,3.9600003 C11.5222234,3.95953539 10.4814795,4.414332 9.70932756,5.22931795 C8.9286282,6.05332548 8.48762269,7.17720274 8.48762278,8.35174126 L8.48762278,8.80743504 C8.48762081,8.89432654 8.52129391,8.97404101 8.57493585,9.02490004 C8.61845505,9.06616149 8.66932736,9.08349216 8.7249486,9.07718325 C8.84471281,9.06452918 8.93735791,8.95757169 8.93713883,8.80741596 L8.93713883,8.35174133 C8.93713883,6.2513445 10.5666937,4.53069238 12.6003608,4.53069238 L12.7838702,4.53069238 C14.8175373,4.53069238 16.4470922,6.2513445 16.4470922,8.35174133 L16.4470922,9.08633872 Z M19.3667524,12.5009001 L19.366753,12.4998435 C19.3669665,12.3301148 19.2630136,12.1972681 19.1454071,12.1735722 L19.0419769,12.1534993 C14.8010852,11.306335 10.4476842,11.306335 6.20217504,12.1544083 L6.10759743,12.1727395 C5.98403123,12.1973636 5.87984184,12.3302152 5.88000044,12.5009001 L5.88000008,20.5079283 C5.87984184,20.6778308 5.98403123,20.8106825 6.10750943,20.835289 L6.78144791,20.9695157 C8.70781831,21.3541544 10.6639277,21.5475964 12.6244409,21.5473361 C14.5841312,21.5474673 16.5395783,21.3540258 18.4657033,20.9694362 L19.1391554,20.8353065 C19.2627216,20.8106825 19.366911,20.6778308 19.3667524,20.5071459 L19.3667524,12.5009001 Z" transform="rotate(45 12.623 12.754)"/>
      </g>
      <g opacity=".25" transform="translate(67.325)">
        <rect width="25.247" height="25.153" opacity=".35"/>
        <path fill="#FFF" fill-rule="nonzero" stroke="#FFF" stroke-width=".5" d="M14.105065,11.3258515 C14.105065,9.82202108 12.8775693,8.60292568 11.3633766,8.60292568 C9.84918397,8.60292568 8.62168827,9.82202108 8.62168827,11.3258515 M10.4125325,11.3258515 L8.62168827,11.3258515 L8.62168827,12.6873144 C8.62168827,13.4392295 8.00794042,14.0487772 7.25084409,14.0487772 C6.49374775,14.0487772 5.8799999,13.4392295 5.8799999,12.6873144 L5.8799999,11.3258515 C5.8799999,8.3181907 8.33499129,5.8799999 11.3633766,5.8799999 C14.391762,5.8799999 16.8467534,8.3181907 16.8467534,11.3258515 L16.8467534,12.6873144 C16.8467534,13.4392295 16.2330055,14.0487772 15.4759092,14.0487772 C14.7188129,14.0487772 14.105065,13.4392295 14.105065,12.6873144 L14.105065,11.3258515 L12.3142208,11.3258515 C12.5461804,11.3258515 12.7342208,11.5138919 12.7342208,11.7458515 L12.7342208,19.0746288 C12.7342208,19.3065884 12.5461804,19.4946288 12.3142208,19.4946288 L10.4125325,19.4946288 C10.1805729,19.4946288 9.99253246,19.3065884 9.99253246,19.0746288 L9.99253246,11.7458515 C9.99253246,11.5138919 10.1805729,11.3258515 10.4125325,11.3258515 Z M8.62168827,18.1331659 L8.62168827,19.4946288 C8.62168827,20.9984592 9.84918397,22.2175546 11.3633766,22.2175546 C12.8775693,22.2175546 14.105065,20.9984592 14.105065,19.4946288 L14.105065,18.1331659 C14.105065,17.3812507 14.7188129,16.771703 15.4759092,16.771703 C16.2330055,16.771703 16.8467534,17.3812507 16.8467534,18.1331659 L16.8467534,19.4946288 C16.8467534,22.5022896 14.391762,24.9404804 11.3633766,24.9404804 C8.33499129,24.9404804 5.8799999,22.5022896 5.8799999,19.4946288 L5.8799999,18.1331659 C5.8799999,17.3812507 6.49374775,16.771703 7.25084409,16.771703 C8.00794042,16.771703 8.62168827,17.3812507 8.62168827,18.1331659 Z" transform="rotate(45 11.363 15.41)"/>
      </g>
    </g>
    <g opacity=".1" transform="translate(1.8)">
      <g opacity=".25" transform="rotate(-45 124.807 -35.187)">
        <rect width="25.247" height="25.153"/>
        <path fill="#FFF" fill-rule="nonzero" d="M5.87009894,6.48328536 C6.64525374,6.48328536 7.27364086,5.85824359 7.27364086,5.08721548 C7.27364086,4.31618738 6.64525374,3.6911456 5.87009894,3.6911456 C5.09494414,3.6911456 4.46655702,4.31618738 4.46655702,5.08721548 C4.46655702,5.85824359 5.09494414,6.48328536 5.87009894,6.48328536 Z M4.46655702,7.50581666 C3.62751774,7.02304254 3.0630151,6.12070138 3.0630151,5.08721548 C3.0630151,3.54515927 4.31978934,2.29507572 5.87009894,2.29507572 C7.42040854,2.29507572 8.67718278,3.54515927 8.67718278,5.08721548 C8.67718278,6.12070138 8.11268015,7.02304254 7.27364086,7.50581666 L7.27364086,13.8371734 C8.11268015,14.3199475 8.67718278,15.2222886 8.67718278,16.2557745 C8.67718278,17.7978307 7.42040854,19.0479143 5.87009894,19.0479143 C4.31978934,19.0479143 3.0630151,17.7978307 3.0630151,16.2557745 C3.0630151,15.2222886 3.62751774,14.3199475 4.46655702,13.8371734 L4.46655702,7.50581666 Z M14.2913505,3.6911456 L18.0788579,3.6911456 C19.2413269,3.6911456 20.1862265,4.62715409 20.1862265,5.784205 L20.1862265,13.8371734 C21.0252658,14.3199475 21.5897685,15.2222886 21.5897685,16.2557745 C21.5897685,17.7978307 20.3329942,19.0479143 18.7826846,19.0479143 C17.232375,19.0479143 15.9756008,17.7978307 15.9756008,16.2557745 C15.9756008,15.2222886 16.5401034,14.3199475 17.3791427,13.8371734 L17.3791427,6.69328536 C17.3791427,6.57730556 17.2851225,6.48328536 17.1691427,6.48328536 L14.2913505,6.48328536 L14.2913505,7.87935524 L10.3614331,5.08721548 L14.2913505,2.29507572 L14.2913505,3.6911456 Z M5.87009894,17.6518444 C6.64525374,17.6518444 7.27364086,17.0268026 7.27364086,16.2557745 C7.27364086,15.4847464 6.64525374,14.8597046 5.87009894,14.8597046 C5.09494414,14.8597046 4.46655702,15.4847464 4.46655702,16.2557745 C4.46655702,17.0268026 5.09494414,17.6518444 5.87009894,17.6518444 Z M18.7826846,17.6518444 C19.5578394,17.6518444 20.1862265,17.0268026 20.1862265,16.2557745 C20.1862265,15.4847464 19.5578394,14.8597046 18.7826846,14.8597046 C18.0075298,14.8597046 17.3791427,15.4847464 17.3791427,16.2557745 C17.3791427,17.0268026 18.0075298,17.6518444 18.7826846,17.6518444 Z" transform="matrix(-1 0 0 1 24.653 0)"/>
      </g>
      <g opacity=".25">
        <rect width="25.247" height="25.153"/>
        <path fill="#FFF" d="M14.7327273,5.03999991 C12.6376156,5.03999991 10.9387013,6.68126275 10.9387013,8.705715 C10.9387013,10.3010342 11.9957675,11.654514 13.468052,12.1583299 L13.468052,19.7028603 C13.468052,21.0524299 12.3355099,22.1466703 10.9387013,22.1466703 C9.54169031,22.1466703 8.40935059,21.0524299 8.40935059,19.7028603 L10.9387013,19.7028603 L5.8799999,14.8154357 L5.8799999,19.7028603 C5.8799999,22.4018041 8.14488168,24.5904804 10.9387013,24.5904804 C13.7321162,24.5904804 15.9974027,22.4023906 15.9974027,19.7030558 L15.9974027,12.1585254 C17.4700918,11.654514 18.5267534,10.3012297 18.5267534,8.705715 C18.5267534,6.68126275 16.8280414,5.03999991 14.7327273,5.03999991 Z M13.468052,8.705715 C13.468052,8.03102792 14.0346265,7.48380997 14.7327273,7.48380997 C15.4308281,7.48380997 15.9974027,8.03102792 15.9974027,8.705715 C15.9974027,9.38040208 15.4308281,9.92762003 14.7327273,9.92762003 C14.0346265,9.92762003 13.468052,9.38040208 13.468052,8.705715 Z" transform="rotate(-40 12.203 14.815)"/>
      </g>
      <g opacity=".5" transform="translate(33.662 62.882)">
        <rect width="25.247" height="25.153"/>
        <g transform="rotate(-10 49.273 -10.015)">
          <rect width="19.353" height="13.418" x="-.84" y="-.84" stroke="#FFF" stroke-width="1.68" rx=".84"/>
          <rect width="18.514" height="1.677" y="2.934" fill="#FFF"/>
          <rect width="2.525" height="1.677" x="13.886" y="8.803" fill="#FFF"/>
        </g>
      </g>
      <g opacity=".5" transform="translate(4.208 33.537)">
        <rect width="25.247" height="25.153"/>
        <path fill="#FFF" stroke="#FFF" stroke-width="1.68" d="M8.08732157,16.8600262 L3.78701299,17.9617064 L5.31505627,14.7731431 C4.34926812,13.6529349 3.78701299,12.310446 3.78701299,10.8673161 C3.78701299,6.9491925 7.93157702,3.77292576 13.0441558,3.77292576 C18.1567347,3.77292576 22.3012987,6.9491925 22.3012987,10.8673161 C22.3012987,14.7854397 18.1567347,17.9617064 13.0441558,17.9617064 C11.2207,17.9617064 9.5203822,17.5576635 8.08732157,16.8600262 Z" transform="rotate(-5 13.044 10.867)"/>
      </g>
      <rect width="25.247" height="25.153" transform="translate(33.662 33.537)"/>
      <g opacity=".5" transform="translate(33.662 4.192)">
        <rect width="25.247" height="25.153"/>
        <g stroke="#FFF" stroke-width="1.47" transform="rotate(5 -21.403 20.747)">
          <path d="M3.90937144,11.9865943 L0,12.9956332 L1.38913026,10.0751991 C0.511141033,9.0491902 0,7.81959237 0,6.49781659 C0,2.90917158 3.76778548,0 8.41558442,0 C13.0633833,0 16.8311688,2.90917158 16.8311688,6.49781659 C16.8311688,10.0864616 13.0633833,12.9956332 8.41558442,12.9956332 C6.75789726,12.9956332 5.21215383,12.6255666 3.90937144,11.9865943 Z"/>
          <path d="M10.6271744,18.267595 L6.73246753,19.2838428 L8.11190919,16.352061 C7.23984941,15.3283389 6.73246753,14.1029326 6.73246753,12.7860262 C6.73246753,9.19738119 10.500253,6.28820961 15.1480519,6.28820961 C19.7958509,6.28820961 23.5636364,9.19738119 23.5636364,12.7860262 C23.5636364,16.3746712 19.7958509,19.2838428 15.1480519,19.2838428 C13.4841406,19.2838428 11.9330152,18.910992 10.6271744,18.267595 Z" transform="matrix(-1 0 0 1 30.296 0)"/>
        </g>
      </g>
      <g opacity=".5" transform="translate(63.117 33.537)">
        <rect width="25.247" height="25.153"/>
        <path stroke="#FFF" stroke-width="1.68" d="M17.2389593,13.4605775 L17.9804004,17.261679 C18.2158084,18.4685308 17.1779584,19.2199916 16.0939983,18.633288 L12.6206421,16.7533013 L9.14728578,18.633288 C8.05593805,19.2239902 7.02365088,18.4778862 7.26088367,17.261679 L8.00232477,13.4605775 L5.13137326,10.8455372 C4.21714288,10.0127996 4.61259374,8.78913281 5.84075735,8.62777962 L9.77230384,8.11126248 L11.4540807,4.59911304 C11.9803803,3.50001195 13.2565022,3.49081962 13.7872034,4.59911304 L15.4689803,8.11126248 L19.4005268,8.62777962 C20.6370435,8.79023022 21.0312124,10.0063587 20.1099109,10.8455372 L17.2389593,13.4605775 Z" transform="rotate(-10 12.623 11.307)"/>
      </g>
      <g opacity=".25" transform="translate(0 63.54)">
        <rect width="25.247" height="25.153" y="3.534"/>
        <path stroke="#FFF" stroke-width="1.68" d="M16.4470922,9.086338 C16.5985014,9.07295698 16.748203,9.06066855 16.8966084,9.04946208 L16.8966085,8.34812966 C16.8947355,5.91623563 15.0455801,3.96291102 12.7879034,3.96000038 L12.604033,3.9600003 C11.5222234,3.95953539 10.4814795,4.414332 9.70932756,5.22931795 C8.9286282,6.05332548 8.48762269,7.17720274 8.48762278,8.35174126 L8.48762278,8.80743504 C8.48762081,8.89432654 8.52129391,8.97404101 8.57493585,9.02490004 C8.61845505,9.06616149 8.66932736,9.08349216 8.7249486,9.07718325 C8.84471281,9.06452918 8.93735791,8.95757169 8.93713883,8.80741596 L8.93713883,8.35174133 C8.93713883,6.2513445 10.5666937,4.53069238 12.6003608,4.53069238 L12.7838702,4.53069238 C14.8175373,4.53069238 16.4470922,6.2513445 16.4470922,8.35174133 L16.4470922,9.08633872 Z M19.3667524,12.5009001 L19.366753,12.4998435 C19.3669665,12.3301148 19.2630136,12.1972681 19.1454071,12.1735722 L19.0419769,12.1534993 C14.8010852,11.306335 10.4476842,11.306335 6.20217504,12.1544083 L6.10759743,12.1727395 C5.98403123,12.1973636 5.87984184,12.3302152 5.88000044,12.5009001 L5.88000008,20.5079283 C5.87984184,20.6778308 5.98403123,20.8106825 6.10750943,20.835289 L6.78144791,20.9695157 C8.70781831,21.3541544 10.6639277,21.5475964 12.6244409,21.5473361 C14.5841312,21.5474673 16.5395783,21.3540258 18.4657033,20.9694362 L19.1391554,20.8353065 C19.2627216,20.8106825 19.366911,20.6778308 19.3667524,20.5071459 L19.3667524,12.5009001 Z" transform="rotate(45 12.623 12.754)"/>
      </g>
      <g opacity=".25" transform="translate(67.325)">
        <rect width="25.247" height="25.153" opacity=".35"/>
        <path fill="#FFF" fill-rule="nonzero" stroke="#FFF" stroke-width=".5" d="M14.105065,11.3258515 C14.105065,9.82202108 12.8775693,8.60292568 11.3633766,8.60292568 C9.84918397,8.60292568 8.62168827,9.82202108 8.62168827,11.3258515 M10.4125325,11.3258515 L8.62168827,11.3258515 L8.62168827,12.6873144 C8.62168827,13.4392295 8.00794042,14.0487772 7.25084409,14.0487772 C6.49374775,14.0487772 5.8799999,13.4392295 5.8799999,12.6873144 L5.8799999,11.3258515 C5.8799999,8.3181907 8.33499129,5.8799999 11.3633766,5.8799999 C14.391762,5.8799999 16.8467534,8.3181907 16.8467534,11.3258515 L16.8467534,12.6873144 C16.8467534,13.4392295 16.2330055,14.0487772 15.4759092,14.0487772 C14.7188129,14.0487772 14.105065,13.4392295 14.105065,12.6873144 L14.105065,11.3258515 L12.3142208,11.3258515 C12.5461804,11.3258515 12.7342208,11.5138919 12.7342208,11.7458515 L12.7342208,19.0746288 C12.7342208,19.3065884 12.5461804,19.4946288 12.3142208,19.4946288 L10.4125325,19.4946288 C10.1805729,19.4946288 9.99253246,19.3065884 9.99253246,19.0746288 L9.99253246,11.7458515 C9.99253246,11.5138919 10.1805729,11.3258515 10.4125325,11.3258515 Z M8.62168827,18.1331659 L8.62168827,19.4946288 C8.62168827,20.9984592 9.84918397,22.2175546 11.3633766,22.2175546 C12.8775693,22.2175546 14.105065,20.9984592 14.105065,19.4946288 L14.105065,18.1331659 C14.105065,17.3812507 14.7188129,16.771703 15.4759092,16.771703 C16.2330055,16.771703 16.8467534,17.3812507 16.8467534,18.1331659 L16.8467534,19.4946288 C16.8467534,22.5022896 14.391762,24.9404804 11.3633766,24.9404804 C8.33499129,24.9404804 5.8799999,22.5022896 5.8799999,19.4946288 L5.8799999,18.1331659 C5.8799999,17.3812507 6.49374775,16.771703 7.25084409,16.771703 C8.00794042,16.771703 8.62168827,17.3812507 8.62168827,18.1331659 Z" transform="rotate(45 11.363 15.41)"/>
      </g>
    </g>
    <g opacity=".1" transform="translate(0 36)">
      <g opacity=".25" transform="rotate(-45 197.233 -5.187)">
        <rect width="25.247" height="25.153"/>
        <path fill="#FFF" fill-rule="nonzero" d="M5.87009894,6.48328536 C6.64525374,6.48328536 7.27364086,5.85824359 7.27364086,5.08721548 C7.27364086,4.31618738 6.64525374,3.6911456 5.87009894,3.6911456 C5.09494414,3.6911456 4.46655702,4.31618738 4.46655702,5.08721548 C4.46655702,5.85824359 5.09494414,6.48328536 5.87009894,6.48328536 Z M4.46655702,7.50581666 C3.62751774,7.02304254 3.0630151,6.12070138 3.0630151,5.08721548 C3.0630151,3.54515927 4.31978934,2.29507572 5.87009894,2.29507572 C7.42040854,2.29507572 8.67718278,3.54515927 8.67718278,5.08721548 C8.67718278,6.12070138 8.11268015,7.02304254 7.27364086,7.50581666 L7.27364086,13.8371734 C8.11268015,14.3199475 8.67718278,15.2222886 8.67718278,16.2557745 C8.67718278,17.7978307 7.42040854,19.0479143 5.87009894,19.0479143 C4.31978934,19.0479143 3.0630151,17.7978307 3.0630151,16.2557745 C3.0630151,15.2222886 3.62751774,14.3199475 4.46655702,13.8371734 L4.46655702,7.50581666 Z M14.2913505,3.6911456 L18.0788579,3.6911456 C19.2413269,3.6911456 20.1862265,4.62715409 20.1862265,5.784205 L20.1862265,13.8371734 C21.0252658,14.3199475 21.5897685,15.2222886 21.5897685,16.2557745 C21.5897685,17.7978307 20.3329942,19.0479143 18.7826846,19.0479143 C17.232375,19.0479143 15.9756008,17.7978307 15.9756008,16.2557745 C15.9756008,15.2222886 16.5401034,14.3199475 17.3791427,13.8371734 L17.3791427,6.69328536 C17.3791427,6.57730556 17.2851225,6.48328536 17.1691427,6.48328536 L14.2913505,6.48328536 L14.2913505,7.87935524 L10.3614331,5.08721548 L14.2913505,2.29507572 L14.2913505,3.6911456 Z M5.87009894,17.6518444 C6.64525374,17.6518444 7.27364086,17.0268026 7.27364086,16.2557745 C7.27364086,15.4847464 6.64525374,14.8597046 5.87009894,14.8597046 C5.09494414,14.8597046 4.46655702,15.4847464 4.46655702,16.2557745 C4.46655702,17.0268026 5.09494414,17.6518444 5.87009894,17.6518444 Z M18.7826846,17.6518444 C19.5578394,17.6518444 20.1862265,17.0268026 20.1862265,16.2557745 C20.1862265,15.4847464 19.5578394,14.8597046 18.7826846,14.8597046 C18.0075298,14.8597046 17.3791427,15.4847464 17.3791427,16.2557745 C17.3791427,17.0268026 18.0075298,17.6518444 18.7826846,17.6518444 Z" transform="matrix(-1 0 0 1 24.653 0)"/>
      </g>
      <g opacity=".25" transform="translate(0 60)">
        <rect width="25.247" height="25.153"/>
        <path fill="#FFF" d="M14.7327273,5.03999991 C12.6376156,5.03999991 10.9387013,6.68126275 10.9387013,8.705715 C10.9387013,10.3010342 11.9957675,11.654514 13.468052,12.1583299 L13.468052,19.7028603 C13.468052,21.0524299 12.3355099,22.1466703 10.9387013,22.1466703 C9.54169031,22.1466703 8.40935059,21.0524299 8.40935059,19.7028603 L10.9387013,19.7028603 L5.8799999,14.8154357 L5.8799999,19.7028603 C5.8799999,22.4018041 8.14488168,24.5904804 10.9387013,24.5904804 C13.7321162,24.5904804 15.9974027,22.4023906 15.9974027,19.7030558 L15.9974027,12.1585254 C17.4700918,11.654514 18.5267534,10.3012297 18.5267534,8.705715 C18.5267534,6.68126275 16.8280414,5.03999991 14.7327273,5.03999991 Z M13.468052,8.705715 C13.468052,8.03102792 14.0346265,7.48380997 14.7327273,7.48380997 C15.4308281,7.48380997 15.9974027,8.03102792 15.9974027,8.705715 C15.9974027,9.38040208 15.4308281,9.92762003 14.7327273,9.92762003 C14.0346265,9.92762003 13.468052,9.38040208 13.468052,8.705715 Z" transform="rotate(-40 12.203 14.815)"/>
      </g>
      <g opacity=".5" transform="translate(33.662 122.882)">
        <rect width="25.247" height="25.153"/>
        <g transform="rotate(-10 49.273 -10.015)">
          <rect width="19.353" height="13.418" x="-.84" y="-.84" stroke="#FFF" stroke-width="1.68" rx=".84"/>
          <rect width="18.514" height="1.677" y="2.934" fill="#FFF"/>
          <rect width="2.525" height="1.677" x="13.886" y="8.803" fill="#FFF"/>
        </g>
      </g>
      <g opacity=".5" transform="translate(4.208 93.537)">
        <rect width="25.247" height="25.153"/>
        <path fill="#FFF" stroke="#FFF" stroke-width="1.68" d="M8.08732157,16.8600262 L3.78701299,17.9617064 L5.31505627,14.7731431 C4.34926812,13.6529349 3.78701299,12.310446 3.78701299,10.8673161 C3.78701299,6.9491925 7.93157702,3.77292576 13.0441558,3.77292576 C18.1567347,3.77292576 22.3012987,6.9491925 22.3012987,10.8673161 C22.3012987,14.7854397 18.1567347,17.9617064 13.0441558,17.9617064 C11.2207,17.9617064 9.5203822,17.5576635 8.08732157,16.8600262 Z" transform="rotate(-5 13.044 10.867)"/>
      </g>
      <rect width="25.247" height="25.153" transform="translate(33.662 93.537)"/>
      <g opacity=".5" transform="translate(27.062 .592)">
        <rect width="25.247" height="25.153" x="6.6" y="63.6"/>
        <g stroke="#FFF" stroke-width="1.47" transform="rotate(5 1.042 25.924)">
          <path d="M3.90937144,11.9865943 L0,12.9956332 L1.38913026,10.0751991 C0.511141033,9.0491902 0,7.81959237 0,6.49781659 C0,2.90917158 3.76778548,0 8.41558442,0 C13.0633833,0 16.8311688,2.90917158 16.8311688,6.49781659 C16.8311688,10.0864616 13.0633833,12.9956332 8.41558442,12.9956332 C6.75789726,12.9956332 5.21215383,12.6255666 3.90937144,11.9865943 Z"/>
          <path d="M10.6271744,18.267595 L6.73246753,19.2838428 L8.11190919,16.352061 C7.23984941,15.3283389 6.73246753,14.1029326 6.73246753,12.7860262 C6.73246753,9.19738119 10.500253,6.28820961 15.1480519,6.28820961 C19.7958509,6.28820961 23.5636364,9.19738119 23.5636364,12.7860262 C23.5636364,16.3746712 19.7958509,19.2838428 15.1480519,19.2838428 C13.4841406,19.2838428 11.9330152,18.910992 10.6271744,18.267595 Z" transform="matrix(-1 0 0 1 30.296 0)"/>
        </g>
      </g>
      <g opacity=".5" transform="translate(63.117 93.537)">
        <rect width="25.247" height="25.153"/>
        <path stroke="#FFF" stroke-width="1.68" d="M17.2389593,13.4605775 L17.9804004,17.261679 C18.2158084,18.4685308 17.1779584,19.2199916 16.0939983,18.633288 L12.6206421,16.7533013 L9.14728578,18.633288 C8.05593805,19.2239902 7.02365088,18.4778862 7.26088367,17.261679 L8.00232477,13.4605775 L5.13137326,10.8455372 C4.21714288,10.0127996 4.61259374,8.78913281 5.84075735,8.62777962 L9.77230384,8.11126248 L11.4540807,4.59911304 C11.9803803,3.50001195 13.2565022,3.49081962 13.7872034,4.59911304 L15.4689803,8.11126248 L19.4005268,8.62777962 C20.6370435,8.79023022 21.0312124,10.0063587 20.1099109,10.8455372 L17.2389593,13.4605775 Z" transform="rotate(-10 12.623 11.307)"/>
      </g>
      <g opacity=".25" transform="translate(0 123.54)">
        <rect width="25.247" height="25.153" y="3.534"/>
        <path stroke="#FFF" stroke-width="1.68" d="M16.4470922,9.086338 C16.5985014,9.07295698 16.748203,9.06066855 16.8966084,9.04946208 L16.8966085,8.34812966 C16.8947355,5.91623563 15.0455801,3.96291102 12.7879034,3.96000038 L12.604033,3.9600003 C11.5222234,3.95953539 10.4814795,4.414332 9.70932756,5.22931795 C8.9286282,6.05332548 8.48762269,7.17720274 8.48762278,8.35174126 L8.48762278,8.80743504 C8.48762081,8.89432654 8.52129391,8.97404101 8.57493585,9.02490004 C8.61845505,9.06616149 8.66932736,9.08349216 8.7249486,9.07718325 C8.84471281,9.06452918 8.93735791,8.95757169 8.93713883,8.80741596 L8.93713883,8.35174133 C8.93713883,6.2513445 10.5666937,4.53069238 12.6003608,4.53069238 L12.7838702,4.53069238 C14.8175373,4.53069238 16.4470922,6.2513445 16.4470922,8.35174133 L16.4470922,9.08633872 Z M19.3667524,12.5009001 L19.366753,12.4998435 C19.3669665,12.3301148 19.2630136,12.1972681 19.1454071,12.1735722 L19.0419769,12.1534993 C14.8010852,11.306335 10.4476842,11.306335 6.20217504,12.1544083 L6.10759743,12.1727395 C5.98403123,12.1973636 5.87984184,12.3302152 5.88000044,12.5009001 L5.88000008,20.5079283 C5.87984184,20.6778308 5.98403123,20.8106825 6.10750943,20.835289 L6.78144791,20.9695157 C8.70781831,21.3541544 10.6639277,21.5475964 12.6244409,21.5473361 C14.5841312,21.5474673 16.5395783,21.3540258 18.4657033,20.9694362 L19.1391554,20.8353065 C19.2627216,20.8106825 19.366911,20.6778308 19.3667524,20.5071459 L19.3667524,12.5009001 Z" transform="rotate(45 12.623 12.754)"/>
      </g>
      <g opacity=".25" transform="translate(67.325 60)">
        <rect width="25.247" height="25.153" opacity=".35"/>
        <path fill="#FFF" fill-rule="nonzero" stroke="#FFF" stroke-width=".5" d="M14.105065,11.3258515 C14.105065,9.82202108 12.8775693,8.60292568 11.3633766,8.60292568 C9.84918397,8.60292568 8.62168827,9.82202108 8.62168827,11.3258515 M10.4125325,11.3258515 L8.62168827,11.3258515 L8.62168827,12.6873144 C8.62168827,13.4392295 8.00794042,14.0487772 7.25084409,14.0487772 C6.49374775,14.0487772 5.8799999,13.4392295 5.8799999,12.6873144 L5.8799999,11.3258515 C5.8799999,8.3181907 8.33499129,5.8799999 11.3633766,5.8799999 C14.391762,5.8799999 16.8467534,8.3181907 16.8467534,11.3258515 L16.8467534,12.6873144 C16.8467534,13.4392295 16.2330055,14.0487772 15.4759092,14.0487772 C14.7188129,14.0487772 14.105065,13.4392295 14.105065,12.6873144 L14.105065,11.3258515 L12.3142208,11.3258515 C12.5461804,11.3258515 12.7342208,11.5138919 12.7342208,11.7458515 L12.7342208,19.0746288 C12.7342208,19.3065884 12.5461804,19.4946288 12.3142208,19.4946288 L10.4125325,19.4946288 C10.1805729,19.4946288 9.99253246,19.3065884 9.99253246,19.0746288 L9.99253246,11.7458515 C9.99253246,11.5138919 10.1805729,11.3258515 10.4125325,11.3258515 Z M8.62168827,18.1331659 L8.62168827,19.4946288 C8.62168827,20.9984592 9.84918397,22.2175546 11.3633766,22.2175546 C12.8775693,22.2175546 14.105065,20.9984592 14.105065,19.4946288 L14.105065,18.1331659 C14.105065,17.3812507 14.7188129,16.771703 15.4759092,16.771703 C16.2330055,16.771703 16.8467534,17.3812507 16.8467534,18.1331659 L16.8467534,19.4946288 C16.8467534,22.5022896 14.391762,24.9404804 11.3633766,24.9404804 C8.33499129,24.9404804 5.8799999,22.5022896 5.8799999,19.4946288 L5.8799999,18.1331659 C5.8799999,17.3812507 6.49374775,16.771703 7.25084409,16.771703 C8.00794042,16.771703 8.62168827,17.3812507 8.62168827,18.1331659 Z" transform="rotate(45 11.363 15.41)"/>
      </g>
    </g>
    <g opacity=".3" transform="translate(36 12)">
      <g opacity=".25" transform="rotate(-45 210.25 -90.132)">
        <rect width="36" height="36" y="6"/>
        <path fill="#FFF" fill-rule="nonzero" d="M33.4,6 C34.5045695,6 35.4,5.1045695 35.4,4 C35.4,2.8954305 34.5045695,2 33.4,2 C32.2954305,2 31.4,2.8954305 31.4,4 C31.4,5.1045695 32.2954305,6 33.4,6 Z M31.4,7.46487122 C30.2043973,6.77325238 29.4,5.48056471 29.4,4 C29.4,1.790861 31.190861,0 33.4,0 C35.609139,0 37.4,1.790861 37.4,4 C37.4,5.48056471 36.5956027,6.77325238 35.4,7.46487122 L35.4,16.5351288 C36.5956027,17.2267476 37.4,18.5194353 37.4,20 C37.4,22.209139 35.609139,24 33.4,24 C31.190861,24 29.4,22.209139 29.4,20 C29.4,18.5194353 30.2043973,17.2267476 31.4,16.5351288 L31.4,7.46487122 Z M45.4,2 L50.7970707,2 C52.4535498,2 53.8,3.34091925 53.8,4.99850233 L53.8,16.5351288 C54.9956027,17.2267476 55.8,18.5194353 55.8,20 C55.8,22.209139 54.009139,24 51.8,24 C49.590861,24 47.8,22.209139 47.8,20 C47.8,18.5194353 48.6043973,17.2267476 49.8,16.5351288 L49.8,6.3 C49.8,6.13431458 49.6656854,6 49.5,6 L45.4,6 L45.4,8 L39.8,4 L45.4,0 L45.4,2 Z M33.4,22 C34.5045695,22 35.4,21.1045695 35.4,20 C35.4,18.8954305 34.5045695,18 33.4,18 C32.2954305,18 31.4,18.8954305 31.4,20 C31.4,21.1045695 32.2954305,22 33.4,22 Z M51.8,22 C52.9045695,22 53.8,21.1045695 53.8,20 C53.8,18.8954305 52.9045695,18 51.8,18 C50.6954305,18 49.8,18.8954305 49.8,20 C49.8,21.1045695 50.6954305,22 51.8,22 Z" transform="matrix(-1 0 0 1 85.2 0)"/>
      </g>
      <g opacity=".25" transform="translate(37.8)">
        <rect width="36" height="36" x="4.2" y="15"/>
        <path fill="#FFF" d="M19.4934265,2.50971069 C16.5114745,2.50971069 14.0934265,4.86031069 14.0934265,7.75971069 C14.0934265,10.0445107 15.5979385,11.9829507 17.6934265,12.7045107 L17.6934265,23.5097107 C17.6934265,25.4425507 16.0814905,27.0097107 14.0934265,27.0097107 C12.1050745,27.0097107 10.4934265,25.4425507 10.4934265,23.5097107 L14.0934265,23.5097107 L6.89342652,16.5099907 L6.89342652,23.5097107 C6.89342652,27.3751107 10.1170105,30.5097107 14.0934265,30.5097107 C18.0692665,30.5097107 21.2934265,27.3759507 21.2934265,23.5099907 L21.2934265,12.7047907 C23.3894905,11.9829507 24.8934265,10.0447907 24.8934265,7.75971069 C24.8934265,4.86031069 22.4756665,2.50971069 19.4934265,2.50971069 Z M17.6934265,7.75971069 C17.6934265,6.79343069 18.4998265,6.00971069 19.4934265,6.00971069 C20.4870265,6.00971069 21.2934265,6.79343069 21.2934265,7.75971069 C21.2934265,8.72599069 20.4870265,9.50971069 19.4934265,9.50971069 C18.4998265,9.50971069 17.6934265,8.72599069 17.6934265,7.75971069 Z" transform="rotate(-40 15.893 16.51)"/>
      </g>
      <g opacity=".5" transform="translate(111.6 133.8)">
        <rect width="36" height="36"/>
        <g transform="rotate(-10 70.464 -14.232)">
          <rect width="27.6" height="19.2" x="-1.2" y="-1.2" stroke="#FFF" stroke-width="2.4" rx="1.2"/>
          <rect width="26.4" height="2.4" y="4.2" fill="#FFF"/>
          <rect width="3.6" height="2.4" x="19.8" y="12.6" fill="#FFF"/>
        </g>
      </g>
      <g opacity=".5" transform="translate(0 94.2)">
        <rect width="36" height="36"/>
        <path stroke="#FFF" stroke-width="2.4" d="M11.5319215,24.1309125 L5.4,25.7076923 L7.57887654,21.1440611 C6.20173418,19.5407631 5.4,17.6193258 5.4,15.5538462 C5.4,9.94603177 11.3098413,5.4 18.6,5.4 C25.8901587,5.4 31.8,9.94603177 31.8,15.5538462 C31.8,21.1616605 25.8901587,25.7076923 18.6,25.7076923 C15.999887,25.7076923 13.5753598,25.1294059 11.5319215,24.1309125 Z" transform="rotate(-5 18.6 15.554)"/>
      </g>
      <rect width="36" height="36" transform="translate(90 63)"/>
      <g opacity=".5" transform="translate(94.8 16.2)">
        <rect width="36" height="36"/>
        <g stroke="#FFF" stroke-width="2.1" transform="rotate(5 -30.698 29.642)">
          <path d="M5.57447408,17.155813 L0,18.6 L1.98079685,14.4201287 C0.72884925,12.9516535 0,11.1917916 0,9.3 C0,4.16375183 5.372583,0 12,0 C18.627417,0 24,4.16375183 24,9.3 C24,14.4362482 18.627417,18.6 12,18.6 C9.6362609,18.6 7.43214528,18.0703423 5.57447408,17.155813 Z"/>
          <path d="M15.1535635,26.1454953 L9.6,27.6 L11.5669816,23.4038873 C10.323489,21.938685 9.6,20.1848222 9.6,18.3 C9.6,13.1637518 14.972583,9 21.6,9 C28.227417,9 33.6,13.1637518 33.6,18.3 C33.6,23.4362482 28.227417,27.6 21.6,27.6 C19.2273857,27.6 17.0155957,27.0663573 15.1535635,26.1454953 Z" transform="matrix(-1 0 0 1 43.2 0)"/>
        </g>
      </g>
      <g opacity=".5" transform="translate(205.8 45)">
        <rect width="36" height="36"/>
        <path stroke="#FFF" stroke-width="2.4" d="M24.583212,19.2635746 L25.6410606,24.7070323 C25.9760868,26.4310039 24.494931,27.5074468 22.9461442,26.6660214 L17.9961007,23.9767601 L13.0460572,26.6660214 C11.4867399,27.5131678 10.0135131,26.444391 10.3511408,24.7070323 L11.4089894,19.2635746 L7.3138169,15.5195107 C6.01200777,14.329315 6.57458958,12.5819853 8.32762419,12.3508159 L13.9318196,11.6118011 L16.3299159,6.58502218 C17.0805569,5.01156327 18.9053503,4.9983696 19.6622855,6.58502218 L22.0603818,11.6118011 L27.6645772,12.3508159 C29.4295225,12.5835559 29.9902735,14.3200994 28.6783845,15.5195107 L24.583212,19.2635746 Z" transform="rotate(-10 18 16.183)"/>
      </g>
      <g opacity=".25" transform="translate(42 64.2)">
        <rect width="36" height="36" y="46.8"/>
        <path stroke="#FFF" stroke-width="2.4" d="M29.4441382,12.1443733 C29.6572496,12.1254485 29.8679904,12.1080524 30.0769262,12.0921703 L30.0769264,11.0839901 C30.0742564,7.59713422 27.4407008,4.79899201 24.2291406,4.79482744 L23.9672736,4.79482733 C22.4291406,4.79416245 20.94885,5.44481121 19.8498105,6.6115857 C18.7372981,7.79266354 18.1085189,9.4044195 18.108519,11.0891715 L18.108519,11.7419417 C18.1085162,11.8687778 18.1572484,11.9848149 18.2342395,12.0582376 C18.2952581,12.1164281 18.3652438,12.1404092 18.4416956,12.1316887 C18.6092825,12.1138785 18.7416236,11.9602012 18.7413069,11.7419146 L18.7413069,11.0891716 C18.7413069,8.08363405 21.0620201,5.61889002 23.9620484,5.61889002 L24.2233966,5.61889002 C27.123425,5.61889002 29.4441382,8.08363405 29.4441382,11.0891716 L29.4441382,12.1443733 Z M33.5948254,17.0327426 L33.5948263,17.0312419 C33.5951343,16.7850002 33.4464243,16.5938476 33.2813034,16.5603834 L33.133947,16.5316188 C27.095537,15.3183434 20.8969879,15.3183434 14.8519475,16.5329316 L14.7173031,16.5591807 C14.5436403,16.5939899 14.3945988,16.785141 14.3948276,17.0327426 L14.3948271,28.50261 C14.3945988,28.7491005 14.5436403,28.9402516 14.7171768,28.9750354 L15.6769829,29.1673128 C18.4198002,29.7181666 21.2049391,29.9951993 23.9963433,29.9948264 C26.7865735,29.9950143 29.5707695,29.7179824 32.3132422,29.1671981 L33.2723499,28.9750607 C33.4460127,28.9402516 33.5950542,28.7491005 33.5948254,28.5014988 L33.5948254,17.0327426 Z" transform="rotate(45 23.995 17.395)"/>
      </g>
      <g opacity=".25" transform="translate(138 15)">
        <rect width="36" height="36" opacity=".35"/>
        <path fill="#FFF" fill-rule="nonzero" stroke="#FFF" stroke-width=".6" d="M26.8674405,33.9174405 C26.8674405,31.7635299 25.121351,30.0174405 22.9674405,30.0174405 C20.8135299,30.0174405 19.0674405,31.7635299 19.0674405,33.9174405 M21.6174405,33.9174405 L19.0674405,33.9174405 L19.0674405,35.8674405 C19.0674405,36.9443957 18.1943957,37.8174405 17.1174405,37.8174405 C16.0404852,37.8174405 15.1674405,36.9443957 15.1674405,35.8674405 L15.1674405,33.9174405 C15.1674405,29.6096194 18.6596194,26.1174405 22.9674405,26.1174405 C27.2752615,26.1174405 30.7674405,29.6096194 30.7674405,33.9174405 L30.7674405,35.8674405 C30.7674405,36.9443957 29.8943957,37.8174405 28.8174405,37.8174405 C27.7404852,37.8174405 26.8674405,36.9443957 26.8674405,35.8674405 L26.8674405,33.9174405 L24.3174405,33.9174405 C24.6488113,33.9174405 24.9174405,34.1860696 24.9174405,34.5174405 L24.9174405,45.0174405 C24.9174405,45.3488113 24.6488113,45.6174405 24.3174405,45.6174405 L21.6174405,45.6174405 C21.2860696,45.6174405 21.0174405,45.3488113 21.0174405,45.0174405 L21.0174405,34.5174405 C21.0174405,34.1860696 21.2860696,33.9174405 21.6174405,33.9174405 Z M19.0674405,43.6674405 L19.0674405,45.6174405 C19.0674405,47.771351 20.8135299,49.5174405 22.9674405,49.5174405 C25.121351,49.5174405 26.8674405,47.771351 26.8674405,45.6174405 L26.8674405,43.6674405 C26.8674405,42.5904852 27.7404852,41.7174405 28.8174405,41.7174405 C29.8943957,41.7174405 30.7674405,42.5904852 30.7674405,43.6674405 L30.7674405,45.6174405 C30.7674405,49.9252615 27.2752615,53.4174405 22.9674405,53.4174405 C18.6596194,53.4174405 15.1674405,49.9252615 15.1674405,45.6174405 L15.1674405,43.6674405 C15.1674405,42.5904852 16.0404852,41.7174405 17.1174405,41.7174405 C18.1943957,41.7174405 19.0674405,42.5904852 19.0674405,43.6674405 Z" transform="rotate(45 22.967 39.767)"/>
      </g>
    </g>
  </g>
</svg>